<svg xmlns="http://www.w3.org/2000/svg" xmlns:xlink="http://www.w3.org/1999/xlink" version="1.1" x="0px" y="0px" viewBox="0 0 100 125" enable-background="new 0 0 100 100" xml:space="preserve"><ellipse fill="#000000" cx="42.756" cy="49.062" rx="1.875" ry="2.812"/><ellipse fill="#000000" cx="61.506" cy="49.062" rx="1.875" ry="2.812"/><path fill="#000000" d="M57.756,54.688c-0.518,0-0.938,0.419-0.938,0.938c0,2.585-2.102,4.688-4.688,4.688s-4.688-2.102-4.688-4.688  c0-0.518-0.419-0.938-0.938-0.938s-0.938,0.419-0.938,0.938c0,3.618,2.944,6.562,6.562,6.562s6.562-2.944,6.562-6.562  C58.694,55.107,58.274,54.688,57.756,54.688z"/><path fill="#000000" d="M72.756,11.559h-45c-4.653,0-8.438,3.785-8.438,8.438v61.875c0,4.64,3.765,8.414,8.401,8.434  c0.013,0,0.024,0.007,0.037,0.007h45c0.013,0,0.024-0.007,0.037-0.007c2.567-0.02,4.651-2.111,4.651-4.684v-15l0,0  c0-0.001,0-0.003,0-0.003V16.246C77.444,13.661,75.342,11.559,72.756,11.559z M75.569,16.246v54.372  c0,1.551-1.262,2.812-2.812,2.812c-0.007,0-0.011,0.003-0.018,0.003H28.694v-60h44.062C74.307,13.434,75.569,14.695,75.569,16.246z   M21.194,19.996c0-3.296,2.454-6.007,5.625-6.467v60c-2.276,0.256-4.265,1.402-5.625,3.105V19.996z M72.756,88.434  c-0.007,0-0.011,0.004-0.018,0.004H27.774c-0.007,0-0.011-0.004-0.018-0.004c-3.618,0-6.562-2.944-6.562-6.562  s2.944-6.562,6.562-6.562h45c0.013,0,0.024-0.007,0.037-0.007c1.045-0.008,2-0.37,2.776-0.958v11.277  C75.569,87.172,74.307,88.434,72.756,88.434z"/><path fill="#000000" d="M71.819,81.871c0-0.518-0.419-0.938-0.938-0.938h-3.75c-0.518,0-0.938,0.419-0.938,0.938  c0,0.519,0.419,0.938,0.938,0.938h3.75C71.399,82.809,71.819,82.39,71.819,81.871z"/><path fill="#000000" d="M64.319,81.871c0-0.518-0.419-0.938-0.938-0.938h-1.875c-0.518,0-0.938,0.419-0.938,0.938  c0,0.519,0.419,0.938,0.938,0.938h1.875C63.899,82.809,64.319,82.39,64.319,81.871z"/><path fill="#000000" d="M58.694,81.871c0-0.518-0.419-0.938-0.938-0.938h-3.75c-0.518,0-0.938,0.419-0.938,0.938  c0,0.519,0.419,0.938,0.938,0.938h3.75C58.274,82.809,58.694,82.39,58.694,81.871z"/><path fill="#000000" d="M51.194,81.871c0-0.518-0.419-0.938-0.938-0.938h-7.5c-0.518,0-0.938,0.419-0.938,0.938  c0,0.519,0.419,0.938,0.938,0.938h7.5C50.774,82.809,51.194,82.39,51.194,81.871z"/><path fill="#000000" d="M39.944,81.871c0-0.518-0.419-0.938-0.938-0.938h-15c-0.518,0-0.938,0.419-0.938,0.938  c0,0.519,0.419,0.938,0.938,0.938h15C39.524,82.809,39.944,82.39,39.944,81.871z"/><path fill="#000000" d="M72.756,77.184h-3.75c-0.518,0-0.938,0.419-0.938,0.938c0,0.519,0.419,0.938,0.938,0.938h3.75  c0.518,0,0.938-0.419,0.938-0.938C73.694,77.603,73.274,77.184,72.756,77.184z"/><path fill="#000000" d="M63.381,79.059h1.875c0.518,0,0.938-0.419,0.938-0.938c0-0.518-0.419-0.938-0.938-0.938h-1.875  c-0.518,0-0.938,0.419-0.938,0.938C62.444,78.64,62.863,79.059,63.381,79.059z"/><path fill="#000000" d="M55.881,79.059h3.75c0.518,0,0.938-0.419,0.938-0.938c0-0.518-0.419-0.938-0.938-0.938h-3.75  c-0.518,0-0.938,0.419-0.938,0.938C54.944,78.64,55.363,79.059,55.881,79.059z"/><path fill="#000000" d="M44.631,79.059h7.5c0.518,0,0.938-0.419,0.938-0.938c0-0.518-0.419-0.938-0.938-0.938h-7.5  c-0.518,0-0.938,0.419-0.938,0.938C43.694,78.64,44.113,79.059,44.631,79.059z"/><path fill="#000000" d="M25.881,79.059h15c0.518,0,0.938-0.419,0.938-0.938c0-0.518-0.419-0.938-0.938-0.938h-15  c-0.518,0-0.938,0.419-0.938,0.938C24.944,78.64,25.363,79.059,25.881,79.059z"/><path fill="#000000" d="M72.756,84.684h-3.75c-0.518,0-0.938,0.419-0.938,0.938c0,0.519,0.419,0.938,0.938,0.938h3.75  c0.518,0,0.938-0.419,0.938-0.938C73.694,85.103,73.274,84.684,72.756,84.684z"/><path fill="#000000" d="M65.256,84.684h-1.875c-0.518,0-0.938,0.419-0.938,0.938c0,0.519,0.419,0.938,0.938,0.938h1.875  c0.518,0,0.938-0.419,0.938-0.938C66.194,85.103,65.774,84.684,65.256,84.684z"/><path fill="#000000" d="M59.631,84.684h-3.75c-0.518,0-0.938,0.419-0.938,0.938c0,0.519,0.419,0.938,0.938,0.938h3.75  c0.518,0,0.938-0.419,0.938-0.938C60.569,85.103,60.149,84.684,59.631,84.684z"/><path fill="#000000" d="M52.131,84.684h-7.5c-0.518,0-0.938,0.419-0.938,0.938c0,0.519,0.419,0.938,0.938,0.938h7.5  c0.518,0,0.938-0.419,0.938-0.938C53.069,85.103,52.649,84.684,52.131,84.684z"/><path fill="#000000" d="M40.881,84.684h-15c-0.518,0-0.938,0.419-0.938,0.938c0,0.519,0.419,0.938,0.938,0.938h15  c0.518,0,0.938-0.419,0.938-0.938C41.819,85.103,41.399,84.684,40.881,84.684z"/><text x="0" y="115" fill="#000000" font-size="5px" font-weight="bold" font-family="'Helvetica Neue', Helvetica, Arial-Unicode, Arial, Sans-serif">Created by Julien Deveaux</text><text x="0" y="120" fill="#000000" font-size="5px" font-weight="bold" font-family="'Helvetica Neue', Helvetica, Arial-Unicode, Arial, Sans-serif">from the Noun Project</text></svg>